<svg id="Capa_1" enable-background="new 0 0 512 512" height="512" viewBox="0 0 512 512" width="512" xmlns="http://www.w3.org/2000/svg"><g><g><g><g><g><path d="m293.212 152.247 36.997 101.395 171.661 171.66c-26.15 26.536-52.615 52.761-78.865 79.198l-173.023-173.021h-21.38v-179.443l-24.287-24.196c-10.192-10.153-10.207-26.651-.035-36.823 10.159-10.159 26.63-10.159 36.789 0l36.15 36.15c7.096 7.094 12.554 15.654 15.993 25.08z" fill="#c86f5c"/><path d="m501.866 425.303-171.656-171.656-37.004-101.401c-3.437-9.429-8.886-17.988-15.986-25.076l-36.145-36.156c-5.088-5.076-11.735-7.609-18.394-7.609s-13.318 2.533-18.394 7.609c-4.737 4.737-7.258 10.842-7.575 17.038.452-.034.904-.045 1.357-.045 6.659 0 13.318 2.532 18.394 7.62l36.156 36.145c7.089 7.1 12.549 15.658 15.986 25.076l37.004 101.401 25.541 25.541c-18.117 18.163-36.244 36.317-54.394 54.458l101.944 101.944c10.379-8.151 17.049-20.802 17.049-34.98v-26.785c0-11.085 13.402-16.636 21.24-8.798l60.275 60.275z" fill="#ba5d4f"/><path d="m446.214 296.161-43.489-43.489c-7.095-7.095-15.654-12.553-25.08-15.992l-101.395-36.996-181.992-192.184c-29.255 29.256-54.871 54.872-84.127 84.128l188.283 188.282v97.892c0 11.843 9.209 21.929 21.044 22.349 12.425.441 22.636-9.5 22.636-21.826v23.475c0 12.062 9.778 21.84 21.84 21.84 12.062 0 21.84-9.778 21.84-21.84v11.198c0 11.842 9.209 21.929 21.044 22.349 12.425.442 22.636-9.499 22.636-21.826v11.691c0 12.062 9.778 21.84 21.84 21.84 12.062 0 21.84-9.778 21.84-21.84v-128.645l36.28 36.346c10.046 10.073 26.321 10.204 36.528.294 10.411-10.109 10.534-26.784.272-37.046z" fill="#ffcec0"/><path d="m453.829 314.55c0 6.784-2.632 13.558-7.886 18.662-3.991 3.874-8.914 6.217-14.028 7.02.214-1.348.321-2.718.321-4.088 0-6.645-2.536-13.301-7.619-18.384l-43.484-43.495c-7.094-7.095-15.655-12.552-25.082-15.987l-101.399-37.003-181.985-192.181 21.594-21.594 181.985 192.183 101.399 37.003c9.427 3.435 17.988 8.892 25.082 15.987l43.484 43.484c5.082 5.082 7.618 11.737 7.618 18.393z" fill="#fdb0a0"/><g><path d="m146.999 292.768c0 12.062 9.778 21.84 21.84 21.84h26.663c12.062 0 21.84-9.778 21.84-21.84 0-12.062-9.778-21.84-21.84-21.84h-26.663c-12.062 0-21.84 9.778-21.84 21.84z" fill="#f69583"/><path d="m217.347 292.763c0 12.063-9.78 21.843-21.843 21.843h-25.121c12.063 0 21.843-9.78 21.843-21.843 0-6.026-2.442-11.487-6.399-15.432-3.946-3.957-9.418-6.399-15.444-6.399h25.121c6.026 0 11.498 2.442 15.444 6.399 3.957 3.945 6.399 9.406 6.399 15.432z" fill="#ea806f"/></g><g><path d="m111.819 249.088c0 12.062 9.778 21.84 21.84 21.84h44.534c12.062 0 21.84-9.778 21.84-21.84 0-12.062-9.778-21.84-21.84-21.84h-44.534c-12.062 0-21.84 9.778-21.84 21.84z" fill="#fdb0a0"/><path d="m200.027 249.088c0 12.063-9.768 21.843-21.831 21.843h-25.121c12.063 0 21.843-9.779 21.843-21.843 0-6.026-2.442-11.498-6.399-15.444-3.957-3.957-9.406-6.399-15.444-6.399h25.121c6.037 0 11.487 2.442 15.444 6.399 3.945 3.946 6.387 9.419 6.387 15.444z" fill="#f9a08f"/></g><g><path d="m85.824 205.408c0 12.062 9.778 21.84 21.84 21.84h45.048c12.062 0 21.84-9.778 21.84-21.84 0-12.062-9.778-21.84-21.84-21.84h-45.048c-12.062 0-21.84 9.778-21.84 21.84z" fill="#f69583"/><path d="m174.555 205.403c0 12.063-9.779 21.843-21.843 21.843h-25.121c12.063 0 21.843-9.78 21.843-21.843 0-6.026-2.442-11.487-6.399-15.432-3.957-3.957-9.406-6.399-15.444-6.399h25.121c6.037 0 11.487 2.442 15.444 6.399 3.957 3.945 6.399 9.406 6.399 15.432z" fill="#ea806f"/></g><g><path d="m56.536 161.728c0 12.062 9.778 21.84 21.84 21.84h34.323c12.062 0 21.84-9.778 21.84-21.84 0-12.062-9.778-21.84-21.84-21.84h-34.323c-12.062 0-21.84 9.778-21.84 21.84z" fill="#fdb0a0"/><path d="m134.544 161.729c0 12.063-9.779 21.843-21.843 21.843h-25.121c12.063 0 21.843-9.779 21.843-21.843 0-6.037-2.442-11.487-6.399-15.444-3.946-3.957-9.418-6.399-15.444-6.399h25.121c6.026 0 11.498 2.442 15.444 6.399 3.957 3.957 6.399 9.407 6.399 15.444z" fill="#f9a08f"/></g></g></g><g><path d="m507.172 419.999-33.223-33.222c-2.929-2.929-7.678-2.929-10.606 0-2.929 2.929-2.929 7.678 0 10.606l33.223 33.222c1.464 1.464 3.384 2.197 5.303 2.197s3.839-.732 5.303-2.197c2.93-2.928 2.93-7.677 0-10.606z"/><path d="m190.914 331.76c0 4.142 3.358 7.5 7.5 7.5s7.5-3.358 7.5-7.5v-11.568c11.053-4.21 18.929-14.912 18.929-27.425 0-13.524-9.2-24.933-21.668-28.315 2.76-4.472 4.358-9.734 4.358-15.364 0-16.144-13.107-29.283-29.239-29.338 2.389-4.244 3.759-9.135 3.759-14.342 0-16.178-13.162-29.34-29.34-29.34h-14.431c2.388-4.244 3.757-9.134 3.757-14.34 0-16.178-13.162-29.34-29.34-29.34h-.364c-4.142 0-7.5 3.358-7.5 7.5s3.358 7.5 7.5 7.5h.364c7.907 0 14.34 6.433 14.34 14.34s-6.433 14.34-14.34 14.34h-34.323c-7.907 0-14.34-6.433-14.34-14.34 0-7.353 5.728-13.624 13.04-14.277 4.125-.369 7.171-4.012 6.803-8.138s-4.009-7.169-8.138-6.803c-3.946.353-7.638 1.463-10.946 3.174l-49.36-49.36c-2.929-2.929-7.678-2.929-10.606 0-2.929 2.929-2.929 7.678 0 10.606l48.859 48.86c-2.951 4.59-4.651 10.06-4.651 15.938 0 16.178 13.162 29.34 29.34 29.34h3.706c-2.388 4.243-3.757 9.134-3.757 14.34 0 16.178 13.162 29.34 29.34 29.34h.412c-2.388 4.244-3.757 9.134-3.757 14.34 0 16.178 13.162 29.34 29.34 29.34h9.598c-2.388 4.243-3.757 9.134-3.757 14.34 0 16.178 13.162 29.34 29.34 29.34h22.074v9.652zm-97.59-126.352c0-7.907 6.433-14.34 14.34-14.34h45.048c7.907 0 14.34 6.433 14.34 14.34s-6.433 14.34-14.34 14.34h-45.048c-7.907 0-14.34-6.433-14.34-14.34zm25.995 43.68c0-7.907 6.433-14.34 14.34-14.34h44.534c7.907 0 14.34 6.433 14.34 14.34s-6.433 14.34-14.34 14.34h-44.534c-7.908 0-14.34-6.433-14.34-14.34zm35.181 43.68c0-7.907 6.433-14.34 14.34-14.34h26.663c7.907 0 14.34 6.433 14.34 14.34s-6.433 14.34-14.34 14.34h-26.663c-7.908-.001-14.34-6.433-14.34-14.34z"/><path d="m461.33 314.796c.067-9.042-3.418-17.544-9.813-23.938l-43.489-43.49c-7.814-7.813-17.431-13.945-27.812-17.734l-58.584-21.376-21.375-58.583c-3.788-10.381-9.92-19.999-17.734-27.813l-36.15-36.15c-13.067-13.067-34.329-13.067-47.396 0-3.697 3.697-6.408 8.156-8.036 12.977l-91.237-96.346c-2.849-3.008-7.596-3.137-10.603-.289-3.008 2.848-3.137 7.595-.289 10.603l181.993 192.183c.799.844 1.783 1.491 2.875 1.889l101.396 36.997c8.341 3.044 16.068 7.971 22.347 14.25l43.489 43.489c3.532 3.532 5.456 8.227 5.419 13.222-.037 4.994-2.03 9.661-5.614 13.14-7.224 7.012-18.884 6.918-25.996-.211l-36.28-36.346c-2.145-2.148-5.372-2.793-8.175-1.632-2.804 1.16-4.633 3.896-4.633 6.93v128.646c0 7.907-6.433 14.34-14.34 14.34s-14.34-6.433-14.34-14.34v-45.266c0-4.142-3.358-7.5-7.5-7.5s-7.5 3.358-7.5 7.5v33.575c0 3.927-1.557 7.592-4.384 10.32-2.825 2.726-6.551 4.15-10.486 4.01-7.615-.271-13.81-6.934-13.81-14.854v-48.046c0-4.142-3.358-7.5-7.5-7.5s-7.5 3.358-7.5 7.5v36.848c0 7.907-6.433 14.34-14.34 14.34s-14.34-6.433-14.34-14.34v-47.695c0-4.142-3.358-7.5-7.5-7.5s-7.5 3.358-7.5 7.5v24.221c0 3.927-1.557 7.592-4.383 10.32-2.824 2.727-6.554 4.151-10.486 4.011-7.615-.271-13.81-6.934-13.81-14.854v-10.115c0-4.142-3.358-7.5-7.5-7.5s-7.5 3.358-7.5 7.5v10.115c0 15.902 12.686 29.291 28.278 29.844 5.513.198 10.82-1.111 15.476-3.749 1.079 15.204 13.793 27.242 29.266 27.242 6.393 0 12.313-2.054 17.138-5.539 4.575 9.82 14.277 16.843 25.479 17.241 6.555.239 12.842-1.665 18.072-5.405 4.645 10.092 14.853 17.115 26.67 17.115 3.344 0 6.555-.57 9.551-1.605l56.856 56.856c1.464 1.464 3.384 2.197 5.303 2.197s3.839-.732 5.303-2.197c2.929-2.929 2.929-7.678 0-10.606l-54.823-54.823c4.449-5.145 7.15-11.842 7.15-19.162v-110.517l57.306 57.283c1.464 1.464 3.384 2.197 5.303 2.197s3.839-.732 5.303-2.197c2.929-2.929 2.929-7.678 0-10.606l-14.042-14.042c6.094-1.222 11.909-4.129 16.662-8.743 6.489-6.3 10.099-14.749 10.165-23.792zm-256.882-202.134c-1.056-5.96.865-12.07 5.137-16.342 7.219-7.217 18.964-7.218 26.183 0l36.15 36.15c6.278 6.279 11.206 14.006 14.249 22.348l17.047 46.721-22.732-8.294c-.001-.001-76.014-80.471-76.034-80.583z"/></g></g></g></g></svg>