<?xml version="1.0" encoding="utf-8"?>
<!-- Generator: Adobe Illustrator 16.0.0, SVG Export Plug-In . SVG Version: 6.00 Build 0)  -->
<!DOCTYPE svg PUBLIC "-//W3C//DTD SVG 1.1//EN" "http://www.w3.org/Graphics/SVG/1.1/DTD/svg11.dtd">
<svg version="1.1" id="Capa_1" xmlns="http://www.w3.org/2000/svg" xmlns:xlink="http://www.w3.org/1999/xlink" x="0px" y="0px"
	 width="50px" height="50px" viewBox="0 0 800 800" enable-background="new 0 0 800 800" xml:space="preserve">
<g>
	<path fill="#3DB4EA" d="M24.807,646.161V153.839h750.387v91.322c0,6.563,5.34,11.903,11.903,11.903h1v27.807h-1
		c-6.563,0-11.903,5.34-11.903,11.903v349.387H24.807z M400.002,259.066c-4.898,0-9.365,3.072-11.116,7.645l-33.009,86.18
		l-92.163,4.761c-4.891,0.252-9.193,3.552-10.707,8.21c-1.515,4.658,0.026,9.855,3.835,12.933l71.761,58.024l-23.95,89.123
		c-1.271,4.729,0.537,9.841,4.5,12.718c2.049,1.489,4.47,2.276,7.001,2.276c2.309,0,4.551-0.666,6.486-1.926L400,488.69
		l77.358,50.32c1.936,1.259,4.179,1.925,6.49,1.925c2.529,0,4.949-0.787,6.997-2.274c3.962-2.879,5.771-7.989,4.5-12.719
		l-23.95-89.123l71.761-58.024c3.809-3.077,5.352-8.274,3.839-12.933c-1.513-4.658-5.815-7.958-10.706-8.21l-92.163-4.761
		l-33.008-86.18C409.367,262.139,404.9,259.066,400.002,259.066z"/>
	<path fill="#3DB4EA" d="M774.193,245.161v-90.322H25.807v490.322h748.387V296.774c0-7.128,5.777-12.903,12.903-12.903v-25.807
		C779.971,258.064,774.193,252.289,774.193,245.161z M543.785,379.573l-71.255,57.614l23.781,88.495
		c1.387,5.161-0.553,10.646-4.878,13.787c-2.257,1.64-4.918,2.466-7.585,2.466c-2.443,0-4.892-0.691-7.035-2.087L400,489.884
		l-76.813,49.965c-4.48,2.918-10.295,2.765-14.62-0.379c-4.325-3.141-6.265-8.626-4.878-13.787l23.781-88.495l-71.255-57.614
		c-4.158-3.36-5.812-8.936-4.158-14.02c1.652-5.084,6.268-8.625,11.606-8.9l91.513-4.728l32.776-85.572
		c1.911-4.991,6.704-8.287,12.05-8.287c5.345,0,10.139,3.296,12.05,8.287l32.775,85.572l91.514,4.728
		c5.338,0.275,9.954,3.816,11.605,8.9C549.597,370.637,547.943,376.213,543.785,379.573z"/>
	<path d="M774.193,296.774v348.387H25.807V154.839h748.387v90.322c0,7.128,5.777,12.903,12.903,12.903S800,252.289,800,245.161
		V141.936c0-7.128-5.777-12.903-12.903-12.903H12.903C5.777,129.032,0,134.808,0,141.936v516.129
		c0,7.128,5.777,12.903,12.903,12.903h774.193c7.126,0,12.903-5.775,12.903-12.903v-361.29c0-7.128-5.777-12.903-12.903-12.903
		S774.193,289.646,774.193,296.774z"/>
	<path fill="#FFFFFF" d="M423.729,368.995L400,307.043l-23.729,61.951c-1.825,4.765-6.288,8.007-11.384,8.271l-66.252,3.422
		l51.585,41.71c3.97,3.208,5.673,8.454,4.35,13.382l-17.218,64.066l55.611-36.172c2.138-1.392,4.586-2.087,7.034-2.087
		s4.896,0.695,7.035,2.087l55.611,36.172l-17.219-64.066c-1.324-4.928,0.381-10.174,4.35-13.382l51.586-41.71l-66.252-3.422
		C430.017,377.001,425.554,373.758,423.729,368.995z"/>
	<path d="M536.339,356.654l-91.513-4.728l-32.776-85.572c-1.911-4.991-6.704-8.287-12.05-8.287s-10.139,3.296-12.05,8.287
		l-32.776,85.572l-91.513,4.728c-5.338,0.275-9.955,3.816-11.606,8.9c-1.652,5.083,0.001,10.66,4.158,14.02l71.255,57.614
		l-23.782,88.495c-1.387,5.161,0.553,10.646,4.878,13.787c4.323,3.144,10.139,3.297,14.62,0.379l76.813-49.965l76.814,49.965
		c2.144,1.396,4.59,2.087,7.034,2.087c2.667,0,5.328-0.824,7.586-2.466c4.325-3.141,6.264-8.626,4.877-13.787l-23.781-88.495
		l71.255-57.614c4.158-3.36,5.812-8.936,4.158-14.02C546.293,360.468,541.678,356.929,536.339,356.654z M449.777,422.398
		c-3.969,3.208-5.672,8.454-4.35,13.382l17.219,64.066l-55.611-36.172c-2.139-1.392-4.587-2.087-7.035-2.087
		s-4.896,0.695-7.035,2.087l-55.611,36.172l17.219-64.066c1.324-4.928-0.381-10.174-4.35-13.382l-51.585-41.71l66.252-3.422
		c5.096-0.263,9.559-3.506,11.384-8.271l23.729-61.951l23.728,61.951c1.826,4.766,6.288,8.007,11.385,8.271l66.252,3.422
		L449.777,422.398z"/>
</g>
</svg>
